<?xml version="1.0" standalone="no"?>
<!DOCTYPE svg PUBLIC "-//W3C//DTD SVG 20010904//EN"
 "http://www.w3.org/TR/2001/REC-SVG-20010904/DTD/svg10.dtd">
<svg version="1.0" xmlns="http://www.w3.org/2000/svg"
 width="1600.000000pt" height="1600.000000pt" viewBox="0 0 1600.000000 1600.000000"
 preserveAspectRatio="xMidYMid meet">
<metadata>
Created by potrace 1.16, written by Peter Selinger 2001-2019
</metadata>
<g transform="translate(0.000000,1600.000000) scale(0.100000,-0.100000)"
fill="#000000" stroke="none">
<path d="M7665 14329 c-2466 -129 -4623 -1672 -5550 -3970 -235 -581 -382
-1215 -437 -1884 -16 -195 -16 -758 1 -950 73 -874 290 -1651 666 -2390 685
-1344 1812 -2395 3195 -2978 1534 -647 3285 -660 4835 -35 2129 859 3634 2818
3914 5093 35 287 45 455 45 785 0 330 -10 498 -45 785 -156 1268 -687 2445
-1544 3420 -118 134 -423 437 -565 561 -915 800 -2016 1314 -3210 1498 -420
65 -877 88 -1305 65z m566 -5015 c322 -54 631 -244 835 -513 92 -121 186 -316
226 -466 31 -116 32 -127 32 -330 1 -189 -2 -220 -23 -305 -129 -514 -507
-885 -1026 -1006 -114 -27 -435 -27 -550 0 -404 93 -728 342 -910 698 -102
198 -146 381 -146 608 0 227 44 410 146 608 188 367 549 636 945 705 116 21
353 21 471 1z m-2191 -1701 c74 -370 249 -708 508 -984 469 -500 1194 -728
1860 -584 791 172 1396 782 1552 1568 l11 57 1845 0 1845 0 -5 -42 c-3 -24 -8
-79 -11 -123 -24 -318 -99 -725 -200 -1075 -420 -1459 -1421 -2696 -2770
-3423 -679 -366 -1425 -587 -2225 -659 -178 -16 -717 -16 -900 0 -902 80
-1717 343 -2475 801 -723 436 -1342 1032 -1810 1741 -516 782 -824 1663 -910
2600 -8 91 -15 168 -15 173 0 4 830 7 1844 7 l1845 0 11 -57z"/>
<path d="M7835 8644 c-233 -58 -426 -255 -481 -489 -23 -98 -15 -276 15 -365
66 -193 225 -352 421 -422 56 -20 84 -23 210 -23 126 0 154 3 210 23 196 70
352 226 422 422 20 56 23 84 23 210 0 126 -3 154 -23 210 -70 198 -227 354
-422 421 -85 29 -284 36 -375 13z"/>
</g>
</svg>
